<svg xmlns="http://www.w3.org/2000/svg" version="1.1" xmlns:xlink="http://www.w3.org/1999/xlink" width="30" height="30"><svg width="30" height="30" viewBox="0 0 30 30" fill="none" xmlns="http://www.w3.org/2000/svg">
<rect width="30" height="30" rx="3" fill="#0A2640"></rect>
<path d="M1.7 18V10.8H2.785L5.275 15.9L7.765 10.8H8.85V18H7.725V13.385L5.515 18H5.035L2.83 13.385V18H1.7Z" fill="white"></path>
<path d="M9.2 18L11.47 10.8H13.235L15.505 18H14.265L12.205 11.54H12.475L10.44 18H9.2ZM10.465 16.44V15.315H14.245V16.44H10.465Z" fill="white"></path>
<path d="M21.48 18H20.26V12.925L16.92 18H15.7V10.8H16.92V15.875L20.26 10.8H21.48V18Z" fill="white"></path>
<path d="M25.745 18.15C25.025 18.15 24.4083 17.9933 23.895 17.68C23.3817 17.3633 22.9867 16.9233 22.71 16.36C22.4367 15.7967 22.3 15.1433 22.3 14.4C22.3 13.6567 22.4367 13.0033 22.71 12.44C22.9867 11.8767 23.3817 11.4383 23.895 11.125C24.4083 10.8083 25.025 10.65 25.745 10.65C26.575 10.65 27.2667 10.8583 27.82 11.275C28.3733 11.6883 28.7617 12.2467 28.985 12.95L27.77 13.285C27.63 12.815 27.3917 12.4483 27.055 12.185C26.7183 11.9183 26.2817 11.785 25.745 11.785C25.2617 11.785 24.8583 11.8933 24.535 12.11C24.215 12.3267 23.9733 12.6317 23.81 13.025C23.65 13.415 23.5683 13.8733 23.565 14.4C23.565 14.9267 23.645 15.3867 23.805 15.78C23.9683 16.17 24.2117 16.4733 24.535 16.69C24.8583 16.9067 25.2617 17.015 25.745 17.015C26.2817 17.015 26.7183 16.8817 27.055 16.615C27.3917 16.3483 27.63 15.9817 27.77 15.515L28.985 15.85C28.7617 16.5533 28.3733 17.1133 27.82 17.53C27.2667 17.9433 26.575 18.15 25.745 18.15Z" fill="white"></path>
<rect x="1" y="7" width="28" height="1" fill="#D9D9D9"></rect>
<rect x="1" y="21" width="28" height="1" fill="#D9D9D9"></rect>
</svg><style>@media (prefers-color-scheme: light) { :root { filter: none; } }
@media (prefers-color-scheme: dark) { :root { filter: none; } }
</style></svg>